HIERARCHY
ROOT Hips
{
 OFFSET 0.000000 0.000000 0.000000
 CHANNELS 6 Xposition Yposition Zposition Yrotation Xrotation Zrotation
 JOINT Chest
 {
  OFFSET 0.000000 9.910571 -0.011835
  CHANNELS 3 Yrotation Xrotation Zrotation
  JOINT Chest2
  {
   OFFSET 0.000000 10.789473 0.021497
   CHANNELS 3 Yrotation Xrotation Zrotation
   JOINT Chest3
   {
    OFFSET 0.000000 9.748205 0.000000
    CHANNELS 3 Yrotation Xrotation Zrotation
    JOINT Chest4
    {
     OFFSET 0.000000 9.748205 0.000000
     CHANNELS 3 Yrotation Xrotation Zrotation
     JOINT Neck
     {
      OFFSET 0.000000 13.998479 0.000000
      CHANNELS 3 Yrotation Xrotation Zrotation
      JOINT Head
      {
       OFFSET 0.000000 9.082285 0.051121
       CHANNELS 3 Yrotation Xrotation Zrotation
       End Site
       {
        OFFSET 0.000000 17.246134 0.026702
       }
      }
     }
     JOINT RightCollar
     {
      OFFSET -3.284495 7.824262 0.000000
      CHANNELS 3 Yrotation Xrotation Zrotation
      JOINT RightShoulder
      {
       OFFSET -15.534540 0.000000 0.000000
       CHANNELS 3 Yrotation Xrotation Zrotation
       JOINT RightElbow
       {
        OFFSET 0.000000 -28.251216 0.000000
        CHANNELS 3 Yrotation Xrotation Zrotation
        JOINT RightWrist
        {
         OFFSET 0.000000 -23.418114 0.012537
         CHANNELS 3 Yrotation Xrotation Zrotation
         End Site
         {
          OFFSET 0.000000 -17.723959 0.000000
         }
        }
       }
      }
     }
     JOINT LeftCollar
     {
      OFFSET 3.284495 7.824262 0.000000
      CHANNELS 3 Yrotation Xrotation Zrotation
      JOINT LeftShoulder
      {
       OFFSET 15.534540 0.000000 0.000000
       CHANNELS 3 Yrotation Xrotation Zrotation
       JOINT LeftElbow
       {
        OFFSET 0.000000 -28.251216 0.000000
        CHANNELS 3 Yrotation Xrotation Zrotation
        JOINT LeftWrist
        {
         OFFSET 0.000000 -23.418114 0.012537
         CHANNELS 3 Yrotation Xrotation Zrotation
         End Site
         {
          OFFSET 0.000000 -17.723959 0.000000
         }
        }
       }
      }
     }
    }
   }
  }
 }
 JOINT RightHip
 {
  OFFSET -8.142657 0.057990 0.005917
  CHANNELS 3 Yrotation Xrotation Zrotation
  JOINT RightKnee
  {
   OFFSET 0.000000 -49.716894 0.008478
   CHANNELS 3 Yrotation Xrotation Zrotation
   JOINT RightAnkle
   {
    OFFSET 0.000000 -43.994153 0.004166
    CHANNELS 3 Yrotation Xrotation Zrotation
    JOINT RightToe
    {
     OFFSET 0.000000 -7.619154 17.822051
     CHANNELS 3 Yrotation Xrotation Zrotation
     End Site
     {
      OFFSET 0.000000 -1.595627 7.159905
     }
    }
   }
  }
 }
 JOINT LeftHip
 {
  OFFSET 8.142657 0.057990 0.005917
  CHANNELS 3 Yrotation Xrotation Zrotation
  JOINT LeftKnee
  {
   OFFSET 0.000000 -49.716894 0.008478
   CHANNELS 3 Yrotation Xrotation Zrotation
   JOINT LeftAnkle
   {
    OFFSET 0.000000 -43.994153 0.004166
    CHANNELS 3 Yrotation Xrotation Zrotation
    JOINT LeftToe
    {
     OFFSET 0.000000 -7.619154 17.822051
     CHANNELS 3 Yrotation Xrotation Zrotation
     End Site
     {
      OFFSET 0.000000 -1.595627 7.159905
     }
    }
   }
  }
 }
}
MOTION
Frames: 5
Frame Time: 0.008333
244.308480 56.103840 252.203823 -63.514698 -57.812602 4.286918 -0.822054 22.875776 -1.138627 -0.197689 10.164183 -0.571722 -0.197689 10.164183 -0.571722 -0.138278 7.623330 -0.424340 -1.768776 19.189951 -0.604998 -3.045017 -0.543438 -0.545182 0.045631 10.777996 11.371075 15.235159 -21.841211 -19.495299 -14.518462 -38.389485 44.531683 -2.889555 -11.150647 4.379885 1.217378 10.197056 -9.941222 -9.182332 -20.613517 17.803858 9.000209 -50.092090 -30.541059 -5.890337 -6.698182 -11.325117 -8.206427 -29.840094 -6.755091 -99.175181 73.436013 -115.596683 -3.761091 -6.217164 6.228077 -0.064368 0.424565 -0.022145 4.412086 -29.193181 18.532044 130.568743 79.591031 136.983565 4.562450 -6.754660 -5.493267 -0.028820 -0.368428 -0.023415
244.309802 56.103830 252.204999 -63.517276 -57.811747 4.291605 -0.819709 22.880134 -1.135978 -0.198082 10.166088 -0.571189 -0.198082 10.166088 -0.571189 -0.138578 7.624759 -0.423934 -1.775136 19.182872 -0.607683 -3.055854 -0.556565 -0.547939 0.033036 10.774005 11.376595 15.244880 -21.832938 -19.498795 -14.554478 -38.382365 44.542891 -2.873193 -11.106284 4.435679 1.215402 10.189189 -9.947297 -9.178334 -20.611231 17.809937 9.058405 -50.080251 -30.593120 -5.925373 -6.663961 -11.328909 -8.204796 -29.843104 -6.754267 -99.172640 73.433292 -115.597615 -3.768347 -6.212280 6.227984 -0.058180 0.421676 -0.020612 4.419887 -29.193744 18.529801 130.531340 79.585711 136.945835 4.546751 -6.760826 -5.486227 -0.030703 -0.364693 -0.022410
244.311607 56.103212 252.206282 -63.521166 -57.808439 4.299710 -0.820639 22.883889 -1.138055 -0.199453 10.168172 -0.571915 -0.199453 10.168172 -0.571915 -0.139589 7.626323 -0.424453 -1.779714 19.174045 -0.610363 -3.063444 -0.572956 -0.551220 0.032813 10.769939 11.384074 15.243158 -21.830743 -19.494891 -14.655784 -38.356630 44.616575 -2.853000 -11.063984 4.469057 1.212104 10.175619 -9.948589 -9.173346 -20.611744 17.812753 9.144620 -50.049361 -30.680529 -5.996071 -6.622974 -11.303398 -8.198397 -29.848940 -6.760603 -99.173919 73.433751 -115.599063 -3.772558 -6.208385 6.229150 -0.055102 0.419500 -0.021276 4.425855 -29.196283 18.521722 130.517277 79.584231 136.931012 4.546996 -6.761707 -5.482943 -0.032511 -0.363161 -0.022346
244.314052 56.101938 252.207959 -63.523703 -57.801219 4.305572 -0.821675 22.886491 -1.141144 -0.199524 10.170059 -0.571698 -0.199524 10.170059 -0.571698 -0.139644 7.627739 -0.424288 -1.784448 19.165347 -0.612439 -3.071513 -0.589096 -0.553345 0.035797 10.764739 11.390049 15.222010 -21.833105 -19.487206 -14.781579 -38.324093 44.712048 -2.829205 -10.991782 4.516720 1.206391 10.159782 -9.950265 -9.165307 -20.611531 17.814978 9.200186 -50.038286 -30.728101 -6.049391 -6.573272 -11.287224 -8.195929 -29.859666 -6.771084 -99.186053 73.450140 -115.613311 -3.770485 -6.205142 6.232348 -0.066857 0.418246 -0.026199 4.428584 -29.203846 18.519289 130.450696 79.572807 136.859273 4.529681 -6.759112 -5.477347 -0.030208 -0.364737 -0.020633
244.314639 56.100678 252.207922 -63.523317 -57.796901 4.302582 -0.821243 22.891276 -1.135095 -0.198609 10.171363 -0.569517 -0.198609 10.171363 -0.569517 -0.138995 7.628715 -0.422672 -1.791463 19.156539 -0.617090 -3.082937 -0.605464 -0.559457 0.033259 10.761207 11.394121 15.212324 -21.838691 -19.483232 -14.857530 -38.289064 44.768998 -2.812966 -10.958938 4.567712 1.199143 10.147529 -9.959699 -9.163874 -20.614994 17.816453 9.253884 -50.014110 -30.784591 -6.112170 -6.526516 -11.251785 -8.203292 -29.863455 -6.761179 -99.185509 73.447048 -115.619333 -3.775816 -6.213319 6.236146 -0.061795 0.423435 -0.027055 4.424932 -29.210638 18.526181 130.481473 79.575148 136.886070 4.533056 -6.755378 -5.477189 -0.030105 -0.367408 -0.017013
